# xmcd
#
# Track frame offsets: 
#        150
#        13139
#        32664
#        72800
#        89876
#        116178
#        143183
#        167491
#        182443
#        202043
#        215978
#        235075
#        255884
#
# Disc length: 3574 seconds
#
# Revision: 0
# Processed by: cddbd v1.5.2PL0 Copyright (c) Steve Scherf et al.
# Submitted via: ExactAudioCopyFreeDBPlugin 1.0
#
DISCID=bb0df40d
DTITLE=Peter Abrahamsen - Something Old, Something New, Something Borr
DTITLE=owed and Blue
DYEAR=1995
DGENRE=Country
TTITLE0=Hul i ho'det, hul i sko
TTITLE1=Der er langt til Afrika
TTITLE2=Fagra Blóma
TTITLE3=Rose skal vi danse
TTITLE4=Ann Cathrine
TTITLE5=Månen er altid Blue
TTITLE6=Klø mig lidt på ryggen
TTITLE7=Marianne
TTITLE8=Før det er for sent
TTITLE9=Acadi til Louisiana
TTITLE10=Endnu en chance
TTITLE11=Jeg er træt
TTITLE12=Jeg ku' kys' dig nu
EXTD=
EXTT0=
EXTT1=
EXTT2=
EXTT3=
EXTT4=
EXTT5=
EXTT6=
EXTT7=
EXTT8=
EXTT9=
EXTT10=
EXTT11=
EXTT12=
PLAYORDER=
